# xmcd CD database file
#
# Track frame offsets:
#	187
#	15362
#	33537
#	55352
#	73155
#	91070
#	100747
#	123245
#	144517
#	164730
#	180600
#	203640
#	215642
#	235657
#	261987
#	288677
#
# Disc length: 4084 seconds
#
# Revision: 5
# Processed by: cddbd v1.5.1PL0 Copyright (c) Steve Scherf et al.
# Submitted via: CDex 1.51
#
DISCID=eb0ff210
DTITLE=Jay-Z - in my Lifetime [vol. 1]
DYEAR=1997
DGENRE=Hip-Hop
TTITLE0=intro, a million and one questions, rhyme no more
TTITLE1=the city is mine (feat. Blackstreet)
TTITLE2=i know what girls like (feat. Puff Daddy and Lil' Kim)
TTITLE3=imaginary player
TTITLE4=streets is watching
TTITLE5=friend or foe '98
TTITLE6=lucky me
TTITLE7=always be my, sunshine
TTITLE8=who you wit ii
TTITLE9=face off (feat. Sauce Money)
TTITLE10=real niggaz (feat. Too Short)
TTITLE11=rap game, crack game
TTITLE12=where i'm from
TTITLE13=you must love me
TTITLE14=wishing on a star [d.influence - rmx]
TTITLE15=wishing on a star [track masters - rmx]
EXTD=YEAR: 1997
EXTT0=
EXTT1=
EXTT2=
EXTT3=
EXTT4=
EXTT5=
EXTT6=
EXTT7=
EXTT8=
EXTT9=
EXTT10=
EXTT11=
EXTT12=
EXTT13=
EXTT14=
EXTT15=
PLAYORDER=
